<?xml version="1.0" encoding="utf-8"?>
<svg xmlns="http://www.w3.org/2000/svg" xmlns:xlink="http://www.w3.org/1999/xlink" version="1.1" width="512" height="512" x="0" y="0" viewBox="0 0 512 512" style="enable-background:new 0 0 512 512" class="">
  <g>
    <path d="M199.474 145H161c-8.284 0-15 6.716-15 15s6.716 15 15 15h23.474v165c0 8.284 6.716 15 15 15s15-6.716 15-15V160c0-8.284-6.715-15-15-15zM365.786 281.662c.132-27.152-5.151-45.173-16.625-56.707-8.697-8.743-20.699-13.176-35.67-13.176-10.307 0-19.741 2.786-27.871 7.808V170.02c0-8.284-6.716-15-15-15s-15 6.716-15 15V340c0 8.284 6.716 15 15 15s15-6.716 15-15v-58.349c0-23.476 11.461-39.872 27.871-39.872 9.044 0 12.551 2.473 14.402 4.333 3.666 3.685 8.011 12.828 7.893 35.46v.133l.214 58.35c.03 8.266 6.74 14.945 14.999 14.945h.057c8.284-.031 14.975-6.771 14.945-15.055zM275.393 481.172a228.826 228.826 0 0 1-28.116.661c-8.278-.318-15.247 6.134-15.565 14.412-.318 8.278 6.134 15.247 14.412 15.565 3.275.126 6.598.19 9.875.19 7.295 0 14.68-.315 21.951-.938 8.254-.706 14.372-7.97 13.666-16.224v-.001c-.705-8.252-7.968-14.371-16.223-13.665zM165.473 463.147c-7.592-3.315-16.434.151-19.749 7.743v.001c-3.315 7.592.152 16.434 7.743 19.749a255.784 255.784 0 0 0 29.937 10.898c7.946 2.342 16.286-2.201 18.629-10.147v-.001c2.342-7.946-2.201-16.286-10.147-18.629h-.001a225.255 225.255 0 0 1-26.412-9.614zM474.585 198.431c2.102 8.013 10.302 12.805 18.315 10.703h.001c8.013-2.102 12.805-10.302 10.703-18.315a256.158 256.158 0 0 0-9.986-30.242v-.001c-3.084-7.689-11.816-11.422-19.505-8.339h-.001c-7.689 3.083-11.422 11.816-8.339 19.505a225.947 225.947 0 0 1 8.812 26.689zM511.991 253.816c-.071-8.284-6.844-14.942-15.127-14.871h-.001c-8.284.071-14.942 6.843-14.871 15.127a228.294 228.294 0 0 1-1.501 28.084c-.953 8.229 4.946 15.673 13.175 16.626l1.27.147c7.528.872 14.337-4.524 15.208-12.052 1.24-10.712 1.91-21.486 1.852-32.27l-.005-.791zM467.177 336.671a225.233 225.233 0 0 1-11.639 25.582v.001c-3.896 7.31-1.129 16.395 6.182 20.292l.001.001c7.31 3.896 16.395 1.129 20.292-6.182v-.001a255.49 255.49 0 0 0 13.195-29.002c2.952-7.74-.929-16.408-8.67-19.36h-.001c-7.741-2.953-16.408.928-19.36 8.669zM423.175 408.088a230.236 230.236 0 0 1-20.193 19.601c-6.287 5.395-7.01 14.864-1.615 21.151 5.395 6.287 14.864 7.01 21.151 1.616a260.291 260.291 0 0 0 22.828-22.16c5.581-6.123 5.141-15.61-.981-21.19-6.122-5.58-15.609-5.14-21.19.982zM356.198 458.648a225.21 225.21 0 0 1-25.913 10.853c-7.826 2.716-11.969 11.263-9.252 19.089v.001c2.716 7.826 11.263 11.969 19.089 9.252a255.526 255.526 0 0 0 29.375-12.304c7.426-3.673 10.468-12.67 6.795-20.095-3.671-7.426-12.668-10.469-20.094-6.796z" fill="#ff0001" opacity="1" data-original="#000000"/>
    <path d="M426.413 0c-8.284 0-15 6.716-15 15v37.663C366.995 18.59 312.92.124 256 .124c-68.38 0-132.667 26.628-181.019 74.981C26.629 123.456 0 187.744 0 256.124s26.628 132.667 74.981 181.019a259.506 259.506 0 0 0 23.853 21.089c6.534 5.093 15.959 3.926 21.052-2.608s3.926-15.959-2.608-21.052a229.164 229.164 0 0 1-21.084-18.642C53.508 373.244 30 316.49 30 256.124s23.508-117.12 66.194-159.806S195.634 30.124 256 30.124c46.926 0 91.664 14.211 129.313 40.587h-29.61c-8.284 0-15 6.716-15 15s6.716 15 15 15h70.71c8.284 0 15-6.716 15-15V15c0-8.284-6.716-15-15-15z" fill="#ff0001" opacity="1" data-original="#000000"/>
  </g>
</svg>